<svg xmlns="http://www.w3.org/2000/svg" xmlns:xlink="http://www.w3.org/1999/xlink" viewBox="0 0 1920 1080"><defs><style>.cls-1{fill:url(#linear-gradient);}.cls-2{fill:url(#linear-gradient-2);}.cls-3{fill:url(#linear-gradient-3);}</style><linearGradient id="linear-gradient" x1="624.26" y1="1244.59" x2="1151.2" y2="425.08" gradientUnits="userSpaceOnUse"><stop offset="0" stop-color="#6156f9"/><stop offset="1" stop-color="#1a129f"/></linearGradient><linearGradient id="linear-gradient-2" x1="779.95" y1="1248.97" x2="1519.9" y2="98.18" xlink:href="#linear-gradient"/><linearGradient id="linear-gradient-3" x1="11.13" y1="7.04" x2="-2.94" y2="2.35" xlink:href="#linear-gradient"/></defs><title>Asset 4</title><g id="Layer_2" data-name="Layer 2"><g id="Layer_1-2" data-name="Layer 1"><path class="cls-1" d="M1713.37,1078.41c-.08.08-.2.2-.37.35s-.8.7-1.44,1.24H0V687.82C232.71,541,371.32,289.26,685.6,547.9,764,612.45,838.21,656.78,908.31,687.73,1281.87,852.67,1540,637.67,1713,1077.47Z"/><path class="cls-2" d="M1920,579.49V1080H0V857.91c70.18-23.73,180.83-25.62,351.15,9.11,277.38,56.55,432.79-54,557.16-179.29,169.8-171.1,281.76-369.81,567.28-208.75,85.75,48.37,164.52,75.49,237.41,89.55C1787.82,583,1856.44,583.68,1920,579.49Z"/><rect class="cls-3" width="13" height="11"/></g></g></svg>