<svg xmlns="http://www.w3.org/2000/svg" xmlns:xlink="http://www.w3.org/1999/xlink" viewBox="0 0 1920 838.87"><defs><style>.cls-1{fill:none;}.cls-2{fill:url(#linear-gradient);}.cls-3{fill:url(#linear-gradient-2);}.cls-4{fill:url(#linear-gradient-3);}</style><linearGradient id="linear-gradient" x1="560.23" y1="235.76" x2="1139.23" y2="1136.43" gradientUnits="userSpaceOnUse"><stop offset="0" stop-color="#6156f9"/><stop offset="1" stop-color="#1a129f"/></linearGradient><linearGradient id="linear-gradient-2" x1="234.8" y1="289.54" x2="634.6" y2="911.45" xlink:href="#linear-gradient"/><linearGradient id="linear-gradient-3" x1="768.35" y1="275.34" x2="1456.18" y2="1345.28" xlink:href="#linear-gradient"/></defs><title>Asset 6</title><g id="Layer_2" data-name="Layer 2"><g id="Layer_1-2" data-name="Layer 1"><rect class="cls-1" width="1920" height="838.87"/><path class="cls-2" d="M1690,586.45c-5,4.28-156.13,109.9-360.58,252.42H0V335.71C143.12,358,259.5,306.16,363.14,240.62c25.87-16.36,50.93-33.57,75.43-50.69l15.84-11.11c158-111.06,293.62-209.95,467-37.21a667.94,667.94,0,0,0,63.4,55.88C1307.74,447,1612.37,170.14,1690,586.45Z"/><path class="cls-3" d="M973,569.2c-5,4-190.58,124.73-413.78,269.67H0V261c121.69-79.73,227.54-146.36,362-21.49l1.19,1.1a519.24,519.24,0,0,0,52,42.33,463.6,463.6,0,0,0,39.23,25c117.62,66.9,230.18,61.17,321.35,71.83,35.25,4.12,67.3,10.69,95.21,24.87a155.72,155.72,0,0,1,16.31,9.51C926.75,440.4,956.4,486.23,973,569.2Z"/><path class="cls-4" d="M1920,308V838.87H0V460.18c43.94,9,92.59,22.14,146.44,40q6.56,2.16,13.21,4.43c266.9,91.08,456.62,0,616.11-124.82q15.51-12.12,30.65-24.64,23.46-19.36,46.13-39.29,5.94-5.21,11.84-10.42l.25-.22Q876,295.13,887.28,285l6-5.41q9.2-8.28,18.29-16.51c24.71-22.35,48.95-44.39,73-65.42l.23-.2c70.85-62,139.63-115,212.23-140.43,29.34-10.27,59.31-16,90.29-16,28.9,0,58.69,5,89.67,16,42,14.9,86.22,40.86,133.43,80.34C1656,259.15,1794,297.71,1920,308Z"/></g></g></svg>